<?xml version="1.0" standalone="no"?>
<!DOCTYPE svg PUBLIC "-//W3C//DTD SVG 20010904//EN"
 "http://www.w3.org/TR/2001/REC-SVG-20010904/DTD/svg10.dtd">
<svg version="1.0" xmlns="http://www.w3.org/2000/svg"
 width="1000.000000pt" height="1000.000000pt" viewBox="0 0 1000.000000 1000.000000"
 preserveAspectRatio="xMidYMid meet">
<metadata>
Created by potrace 1.14, written by Peter Selinger 2001-2017
</metadata>
<g transform="translate(0.000000,1000.000000) scale(0.100000,-0.100000)"
fill="#000000" stroke="none">
<path d="M4598 9994 c-3 -2 -45 -7 -94 -10 -99 -5 -147 -9 -214 -18 -25 -4
-61 -8 -80 -10 -19 -3 -35 -5 -35 -6 0 -1 -11 -3 -25 -5 -72 -10 -94 -15 -108
-27 -13 -11 -14 -11 -8 0 7 11 4 12 -10 5 -11 -5 -37 -11 -58 -12 -22 -1 -44
-5 -50 -9 -10 -6 -20 -8 -67 -11 -13 -1 -18 -5 -13 -13 6 -10 5 -10 -7 -1 -11
9 -22 7 -51 -7 -20 -10 -39 -16 -42 -13 -2 2 -18 -3 -35 -11 -16 -9 -41 -16
-54 -16 -13 0 -27 -3 -31 -7 -3 -4 -14 -8 -24 -9 -9 -2 -24 -4 -32 -7 -8 -2
-31 -7 -50 -11 -19 -5 -41 -13 -47 -18 -7 -6 -13 -7 -13 -3 0 4 -7 2 -15 -5
-8 -7 -15 -9 -15 -5 0 4 -6 3 -12 -2 -12 -9 -47 -21 -86 -29 -8 -1 -21 -6 -30
-10 -9 -4 -20 -8 -24 -8 -3 -1 -10 -4 -14 -8 -4 -5 -16 -8 -26 -8 -10 0 -18
-5 -18 -12 0 -6 -3 -8 -6 -5 -4 3 -16 1 -28 -5 -11 -7 -23 -13 -26 -13 -11 -1
-146 -59 -155 -67 -5 -4 -17 -8 -26 -8 -10 0 -19 -5 -21 -10 -2 -6 -13 -12
-26 -13 -12 0 -22 -6 -22 -11 0 -5 -3 -7 -6 -3 -5 5 -86 -30 -144 -63 -14 -8
-28 -13 -32 -12 -5 1 -8 -2 -8 -7 0 -9 -38 -24 -53 -22 -4 1 -10 -6 -13 -14
-3 -8 -10 -12 -16 -9 -5 3 -18 -2 -29 -12 -10 -9 -19 -14 -19 -11 0 4 -8 -1
-18 -11 -10 -10 -50 -33 -90 -52 -39 -18 -70 -36 -67 -39 3 -2 -13 -13 -35
-23 -22 -10 -40 -23 -40 -28 0 -6 -9 -10 -19 -10 -11 0 -26 -9 -34 -20 -8 -11
-17 -17 -20 -13 -4 3 -7 2 -7 -4 0 -10 -36 -26 -52 -24 -5 1 -8 -3 -8 -9 0 -5
-7 -10 -16 -10 -9 0 -18 -9 -21 -20 -3 -11 -12 -20 -19 -20 -8 0 -14 -5 -14
-11 0 -5 -5 -7 -10 -4 -6 3 -13 -1 -16 -9 -3 -9 -12 -16 -20 -16 -7 0 -17 -6
-21 -14 -4 -8 -15 -16 -23 -18 -8 -2 -25 -13 -37 -25 -13 -13 -37 -30 -53 -38
-17 -9 -30 -20 -30 -26 0 -6 -4 -7 -10 -4 -5 3 -10 2 -10 -3 0 -5 -11 -21 -25
-36 -14 -15 -25 -24 -25 -21 0 3 -13 -2 -29 -11 -17 -10 -28 -21 -26 -24 2 -4
-7 -13 -20 -20 -14 -7 -25 -20 -25 -28 0 -9 -3 -13 -6 -9 -4 3 -12 1 -20 -6
-7 -7 -28 -23 -47 -37 -20 -14 -43 -37 -53 -52 -10 -15 -20 -25 -23 -23 -6 7
-51 -44 -51 -57 0 -6 -3 -9 -6 -5 -8 8 -34 -18 -34 -34 0 -7 -2 -10 -5 -8 -7
7 -121 -105 -129 -126 -3 -10 -9 -15 -12 -12 -7 7 -12 3 -87 -82 -32 -35 -56
-66 -53 -68 2 -2 -19 -25 -46 -51 -27 -26 -55 -58 -63 -72 -7 -14 -32 -44 -54
-68 -23 -24 -41 -46 -41 -50 0 -4 -13 -23 -30 -42 -16 -19 -29 -41 -30 -47 0
-7 -3 -13 -7 -13 -5 0 -19 -17 -33 -38 -13 -20 -37 -50 -52 -66 -15 -16 -25
-33 -22 -38 3 -4 0 -8 -5 -8 -6 0 -11 -5 -11 -10 0 -6 -9 -20 -20 -32 -10 -11
-22 -34 -25 -49 -4 -16 -11 -29 -16 -29 -6 0 -8 -4 -4 -9 3 -5 -4 -12 -15 -16
-11 -4 -18 -10 -15 -15 3 -5 -5 -19 -18 -32 -13 -13 -27 -36 -31 -51 -3 -15
-11 -27 -16 -27 -6 0 -10 -6 -10 -12 0 -18 -52 -118 -61 -118 -4 0 -10 -11
-13 -25 -4 -14 -11 -25 -16 -25 -6 0 -10 -6 -10 -13 0 -12 -12 -36 -71 -145
-16 -29 -28 -56 -27 -60 0 -4 -7 -25 -16 -47 -10 -22 -25 -57 -34 -77 -9 -21
-19 -38 -23 -38 -7 0 -24 -68 -21 -82 1 -5 -2 -8 -7 -8 -5 0 -12 -10 -16 -22
-4 -13 -8 -25 -9 -28 -1 -3 -8 -16 -16 -30 -7 -14 -13 -26 -12 -28 1 -1 -5
-18 -13 -38 -8 -20 -12 -40 -9 -45 3 -5 0 -9 -5 -9 -6 0 -10 -3 -9 -7 2 -13
-14 -67 -25 -81 -5 -7 -7 -15 -3 -19 3 -3 -2 -15 -11 -26 -11 -13 -12 -17 -4
-12 11 6 10 2 -2 -16 -9 -13 -17 -36 -17 -51 0 -16 -4 -28 -8 -28 -4 0 -8 -8
-9 -17 -2 -30 -12 -68 -28 -106 -8 -20 -15 -48 -15 -62 0 -14 -5 -25 -12 -25
-6 0 -8 -3 -5 -7 4 -3 1 -13 -6 -21 -10 -13 -9 -14 1 -8 11 7 12 4 4 -11 -6
-10 -13 -37 -16 -59 -3 -21 -10 -58 -16 -82 -6 -24 -8 -47 -5 -53 4 -5 2 -9
-3 -9 -5 0 -8 -11 -7 -25 2 -14 0 -25 -4 -25 -5 0 -8 -12 -9 -27 -1 -16 -4
-39 -8 -53 -3 -14 -7 -39 -8 -56 -2 -17 -6 -35 -9 -42 -4 -6 -3 -13 3 -17 5
-3 10 -12 10 -18 0 -7 -4 -6 -10 3 -8 12 -10 8 -11 -15 -10 -196 -12 -271 -11
-395 1 -80 1 -154 1 -165 1 -11 -1 -182 -4 -380 -3 -223 0 -379 6 -410 5 -27
11 -59 11 -70 1 -11 6 -26 12 -34 8 -11 8 -13 -2 -7 -6 4 -12 2 -12 -3 0 -6 4
-11 9 -11 5 0 8 -11 6 -25 -1 -14 1 -28 6 -30 4 -3 6 -14 4 -25 -2 -11 1 -20
6 -20 6 0 6 -8 -1 -20 -7 -14 -7 -20 0 -20 5 0 10 -8 10 -18 0 -10 3 -22 7
-25 3 -4 8 -26 9 -50 4 -61 9 -91 18 -105 4 -7 8 -26 8 -42 1 -17 6 -30 12
-30 6 0 4 -5 -4 -10 -13 -9 -13 -11 0 -19 8 -6 15 -22 16 -38 1 -15 2 -28 3
-28 2 0 5 -11 7 -24 2 -14 12 -34 22 -45 10 -12 11 -16 3 -11 -10 6 -12 4 -5
-6 9 -14 14 -34 16 -56 1 -7 5 -13 10 -13 5 0 6 -4 3 -10 -3 -5 -3 -16 2 -22
4 -7 9 -24 11 -38 2 -14 7 -29 13 -34 5 -6 9 -18 9 -28 0 -10 4 -26 9 -36 14
-26 24 -55 26 -77 1 -11 9 -34 18 -51 9 -17 13 -34 10 -38 -4 -3 -1 -6 6 -6 7
0 9 -4 6 -10 -3 -5 -1 -10 5 -10 6 0 9 -3 7 -8 -3 -4 3 -25 14 -46 10 -22 19
-46 19 -53 0 -7 4 -13 9 -13 5 0 12 -7 15 -16 3 -8 2 -12 -4 -9 -5 3 -3 -7 5
-22 8 -15 15 -34 15 -40 0 -7 4 -13 9 -13 4 0 18 -28 30 -62 27 -76 40 -105
63 -140 10 -14 18 -33 18 -42 0 -9 4 -16 10 -16 5 0 15 -18 21 -40 7 -22 16
-40 21 -40 4 0 8 -6 8 -12 0 -7 11 -26 25 -42 14 -17 28 -41 32 -55 3 -14 12
-33 19 -41 7 -8 12 -17 11 -20 -1 -3 9 -23 23 -45 13 -22 28 -48 32 -58 5 -11
13 -15 20 -11 7 4 10 3 5 -1 -4 -5 -1 -15 7 -24 7 -9 26 -41 42 -71 16 -30 33
-58 39 -62 5 -4 6 -8 2 -8 -4 0 2 -11 15 -24 30 -32 55 -65 76 -98 9 -16 20
-28 24 -28 4 0 8 -9 8 -20 0 -11 3 -20 8 -20 4 0 27 -27 51 -60 24 -33 48 -60
53 -60 5 0 6 -4 3 -10 -3 -5 0 -10 8 -10 7 0 21 -16 30 -35 9 -20 24 -38 32
-41 8 -4 15 -10 15 -15 0 -10 47 -58 53 -53 2 2 10 -8 18 -24 18 -34 134 -164
157 -174 4 -2 19 -17 33 -35 15 -18 29 -30 32 -27 3 3 8 -3 11 -14 4 -10 18
-25 31 -32 14 -7 23 -16 20 -18 -3 -3 7 -14 22 -24 16 -10 24 -18 20 -18 -4 0
9 -16 30 -35 21 -19 41 -35 46 -35 4 0 7 -4 7 -10 0 -13 37 -50 50 -50 6 0 10
-5 10 -11 0 -5 4 -7 10 -4 5 3 10 1 10 -5 0 -6 5 -8 10 -5 6 3 10 -1 10 -10 0
-9 4 -14 9 -10 5 3 12 -4 16 -15 3 -11 12 -20 20 -20 7 0 15 -7 18 -15 3 -7
23 -23 44 -34 21 -11 34 -20 30 -21 -10 0 71 -70 82 -70 3 0 21 -13 39 -30 18
-16 38 -30 44 -30 6 0 19 -10 29 -22 11 -11 19 -17 19 -13 0 4 9 -2 20 -15 11
-13 20 -20 20 -16 0 7 6 3 52 -38 15 -13 41 -27 58 -31 16 -4 28 -11 24 -16
-3 -5 2 -9 10 -9 9 0 16 -4 16 -10 0 -5 7 -10 14 -10 8 0 27 -11 42 -25 15
-14 33 -25 40 -25 8 0 14 -3 14 -7 0 -8 59 -46 72 -47 3 -1 10 -4 14 -9 4 -4
14 -7 21 -7 8 0 23 -9 35 -20 12 -11 34 -26 50 -32 15 -7 28 -16 28 -20 0 -5
9 -8 20 -8 11 0 20 -4 20 -8 0 -5 18 -15 40 -22 22 -7 45 -19 51 -27 6 -7 15
-10 20 -7 5 3 9 1 9 -5 0 -5 17 -15 38 -22 20 -6 40 -16 43 -20 3 -5 17 -10
32 -11 15 -1 27 -5 27 -8 0 -3 17 -12 38 -19 20 -8 48 -22 62 -31 14 -10 28
-18 33 -19 25 -2 87 -26 87 -33 0 -4 3 -7 8 -7 4 1 10 0 15 -1 4 -1 12 -4 17
-5 6 -1 11 -3 13 -5 1 -1 11 -3 21 -5 10 -2 22 -9 26 -15 4 -7 9 -11 11 -10
10 4 59 -13 59 -21 0 -5 7 -6 15 -3 8 4 22 1 30 -6 8 -7 15 -9 15 -5 0 4 6 2
13 -4 8 -6 17 -8 21 -4 4 4 10 2 14 -5 5 -6 17 -13 27 -15 11 -1 26 -6 32 -10
7 -5 21 -10 30 -12 10 -2 45 -11 78 -19 33 -8 63 -12 67 -10 5 3 8 1 8 -3 0
-5 10 -9 22 -10 11 -1 24 -6 27 -10 3 -4 15 -9 26 -10 23 -2 43 -7 67 -17 9
-4 22 -5 28 -1 5 3 10 1 10 -4 0 -6 18 -11 39 -11 22 0 42 -4 46 -10 3 -5 12
-7 20 -3 8 3 15 1 15 -3 0 -5 19 -9 43 -9 23 0 51 -5 62 -11 11 -6 30 -11 43
-9 13 1 25 -2 28 -7 3 -4 22 -8 43 -8 21 0 41 -3 45 -7 11 -11 46 -10 46 1 0
7 4 6 8 -2 5 -6 19 -11 33 -11 13 1 69 -3 124 -10 119 -14 966 -21 1075 -9 41
5 105 9 143 10 37 2 67 6 67 10 0 4 9 5 20 3 11 -2 22 1 26 6 4 6 11 6 20 -2
9 -7 14 -8 14 -1 0 6 8 11 18 10 9 0 29 3 43 6 14 3 41 8 60 10 21 2 33 9 31
17 -2 9 0 10 11 1 8 -7 17 -9 20 -6 3 3 21 8 39 10 18 2 44 6 58 10 14 3 40 7
57 8 18 0 33 4 33 9 0 4 11 7 25 7 14 0 25 5 25 11 0 8 5 8 15 -1 8 -7 15 -8
15 -4 0 9 61 34 88 36 6 1 12 4 12 7 0 3 19 6 41 7 23 1 44 5 48 10 3 5 13 10
21 10 37 4 73 14 86 25 8 6 14 8 14 5 0 -4 10 -1 23 6 12 7 28 11 35 10 6 -2
12 2 12 8 0 6 4 9 8 6 5 -3 20 1 35 9 14 7 28 11 31 8 3 -3 17 2 31 11 14 9
25 14 25 10 0 -4 7 -1 15 6 8 6 19 9 25 5 5 -3 13 1 16 9 3 9 9 14 13 12 4 -3
20 1 36 8 55 24 90 38 90 35 0 -1 20 9 45 22 25 13 47 23 50 24 3 0 15 6 26
13 12 6 24 8 28 5 3 -3 6 0 6 7 0 7 3 10 7 7 3 -4 12 -2 20 4 7 6 13 8 13 5 0
-4 12 1 28 12 27 18 60 34 65 29 1 -1 17 8 35 21 17 13 32 21 32 18 0 -6 101
48 147 79 18 12 31 24 29 26 -2 2 6 5 19 5 14 1 31 8 39 15 33 30 51 44 56 44
17 0 79 37 84 51 3 8 10 12 16 9 5 -3 10 -2 10 2 0 8 7 13 76 48 21 11 47 27
56 35 9 8 35 26 57 40 22 14 41 31 41 38 0 6 4 11 9 10 11 -4 137 86 171 121
14 14 38 32 53 40 15 8 53 41 83 73 31 33 58 57 61 54 3 -2 12 3 22 12 10 10
35 33 57 52 21 19 49 48 62 64 12 16 22 26 22 23 0 -4 18 13 40 35 22 23 40
45 40 48 0 3 14 14 31 24 17 10 28 20 25 23 -3 3 11 19 31 34 20 16 32 29 27
29 -5 0 3 8 19 18 15 10 24 22 20 25 -3 4 0 7 8 7 8 0 28 20 43 45 16 25 33
45 37 45 5 0 9 6 9 14 0 8 9 17 19 21 11 3 23 15 26 26 4 10 10 17 15 14 5 -3
11 4 15 15 3 11 11 20 17 20 6 0 9 3 5 6 -6 6 24 45 61 77 12 12 22 27 22 34
0 7 5 13 10 13 6 0 10 7 10 15 0 8 5 15 11 15 5 0 7 5 3 12 -4 7 -3 8 4 4 7
-4 17 4 24 21 7 15 20 35 30 44 9 8 18 21 20 29 2 8 12 23 24 34 11 12 29 36
39 54 11 17 23 32 28 32 4 0 5 5 2 10 -3 6 -2 10 4 10 5 0 12 9 16 20 6 19 83
140 95 150 7 6 17 31 18 44 0 5 6 12 14 17 7 5 13 12 14 16 2 23 47 107 69
130 14 16 25 36 25 45 0 10 4 18 10 18 5 0 13 12 16 27 4 16 16 40 26 55 11
16 16 28 11 28 -4 0 -3 4 2 8 16 11 56 102 50 113 -4 5 -1 9 5 9 6 0 8 5 5 10
-3 5 -2 10 2 10 5 0 15 17 22 38 8 20 20 45 29 55 8 9 12 17 9 17 -3 0 1 16 9
36 8 20 13 39 10 42 -3 3 1 10 9 16 9 6 17 20 19 31 3 11 11 36 19 55 26 64
30 75 32 83 2 4 4 10 5 15 2 4 4 12 5 17 2 11 11 37 25 70 27 66 40 108 36
113 -3 3 -1 11 4 18 6 6 13 23 15 35 3 13 8 38 12 54 4 17 7 32 8 35 0 3 6 15
13 26 6 12 8 24 5 28 -3 3 -1 6 6 6 7 0 9 4 6 10 -3 5 -1 29 6 52 11 43 15 61
24 110 3 15 9 37 13 50 4 13 7 38 7 56 0 17 3 32 8 32 5 0 7 7 3 15 -3 8 -2
15 2 15 8 0 9 10 14 80 1 17 5 30 9 30 4 0 6 9 4 20 -2 11 1 20 7 20 6 0 5 6
-3 16 -8 10 -9 18 -2 22 5 4 10 14 11 22 0 8 3 29 7 45 18 97 26 791 11 975
-3 47 -8 159 -10 249 -3 125 -7 165 -17 172 -8 5 -9 9 -3 9 5 0 9 12 7 28 -8
71 -16 117 -22 122 -3 3 -6 14 -6 25 1 11 -3 36 -8 55 -10 36 -17 79 -19 118
-1 12 -6 22 -11 22 -4 0 -7 8 -6 18 1 9 0 20 -1 25 -1 4 -4 16 -5 27 -1 11 -3
21 -5 23 -2 2 -6 19 -14 57 -3 14 -9 38 -12 55 -4 16 -10 36 -15 45 -10 17
-50 167 -52 193 -1 9 -5 17 -9 17 -4 0 -8 8 -8 18 0 10 -4 22 -10 28 -5 5 -11
18 -13 29 -2 11 -7 27 -10 35 -3 8 -7 24 -9 35 -2 11 -7 23 -11 26 -4 3 -9 16
-10 27 -1 12 -5 22 -9 22 -4 0 -12 19 -19 43 -6 23 -15 47 -20 53 -5 6 -6 14
-2 17 3 4 1 7 -6 7 -7 0 -9 5 -6 10 3 6 1 10 -5 10 -6 0 -9 4 -6 8 3 5 -1 20
-9 35 -7 14 -11 27 -9 30 2 2 -5 12 -15 21 -11 10 -17 24 -14 32 3 8 -1 14 -8
14 -7 0 -9 3 -6 7 4 3 0 17 -8 30 -9 13 -13 23 -10 23 3 0 0 10 -7 23 -7 12
-11 25 -10 30 1 4 -3 7 -10 7 -6 0 -9 3 -5 6 3 3 -8 28 -24 55 -16 28 -29 56
-29 64 0 8 -4 15 -10 15 -5 0 -10 7 -10 16 0 18 -37 75 -57 87 -7 5 -11 12 -8
18 4 5 2 9 -4 9 -6 0 -8 7 -5 15 4 8 1 15 -6 15 -6 0 -9 4 -6 9 3 5 -1 11 -9
15 -8 3 -12 12 -9 21 3 8 1 15 -5 15 -6 0 -11 5 -11 10 0 19 -83 140 -91 134
-5 -3 -9 2 -9 10 0 24 -42 106 -52 100 -4 -3 -8 2 -8 11 0 9 -14 31 -32 48
-17 18 -31 33 -30 35 5 6 -29 62 -38 62 -5 0 -11 8 -14 18 -4 10 -22 35 -41
56 -19 21 -33 42 -30 46 3 5 -8 20 -25 33 -16 14 -30 28 -30 31 0 8 -24 36
-77 92 -24 24 -43 47 -43 50 0 3 -12 16 -26 29 -14 13 -25 26 -25 29 2 13 -25
46 -36 46 -7 0 -13 7 -13 16 0 8 -4 12 -10 9 -5 -3 -10 1 -10 10 0 9 -4 14 -8
11 -5 -3 -15 6 -22 19 -7 13 -17 22 -22 19 -4 -3 -8 -1 -8 4 0 13 -108 121
-115 114 -3 -3 -5 -1 -5 4 0 12 -96 114 -108 115 -4 0 -23 20 -42 43 -19 24
-38 42 -41 40 -3 -2 -15 6 -27 16 -12 11 -26 20 -32 20 -5 0 -10 5 -10 10 0
14 -46 56 -83 76 -16 9 -42 31 -59 50 -16 19 -34 32 -38 29 -4 -3 -11 2 -14
11 -4 9 -9 14 -12 12 -3 -3 -19 7 -37 23 -17 16 -37 29 -44 29 -7 0 -13 4 -13
8 0 4 -13 15 -29 25 -15 9 -46 32 -67 52 -21 19 -47 35 -56 35 -10 0 -18 4
-18 9 0 5 -8 12 -17 15 -31 12 -76 40 -134 84 -31 23 -60 42 -66 42 -6 0 -16
7 -23 15 -7 8 -16 12 -21 9 -5 -3 -9 0 -9 6 0 6 -4 8 -10 5 -5 -3 -10 -2 -10
3 0 4 -16 14 -35 22 -19 7 -37 20 -40 28 -3 8 -12 11 -20 8 -8 -3 -15 -1 -15
4 0 6 -7 10 -15 10 -8 0 -15 5 -15 11 0 5 -4 8 -9 5 -5 -3 -14 1 -21 9 -7 8
-16 12 -21 9 -5 -3 -9 0 -9 6 0 7 -6 10 -14 7 -8 -3 -17 1 -20 9 -3 9 -10 13
-15 10 -5 -3 -14 1 -21 9 -7 8 -16 12 -21 9 -5 -3 -9 -1 -9 4 0 5 -8 12 -17
15 -10 4 -35 13 -55 20 -21 8 -40 12 -43 9 -3 -3 -5 0 -5 6 0 7 -3 11 -7 10
-8 -2 -84 32 -93 41 -3 4 -14 8 -25 9 -11 2 -22 7 -25 10 -3 4 -16 9 -30 11
-14 1 -27 7 -30 11 -3 4 -14 10 -25 12 -11 1 -22 6 -25 10 -7 9 -151 59 -175
61 -11 1 -26 8 -33 15 -7 6 -24 12 -38 12 -13 0 -24 5 -24 11 0 7 -10 9 -25 7
-14 -3 -25 -1 -25 4 0 5 -4 7 -9 3 -5 -3 -12 -1 -15 3 -3 5 -33 15 -66 22 -33
7 -60 17 -60 23 0 6 -3 8 -6 4 -3 -3 -17 -1 -31 4 -14 5 -42 12 -62 15 -20 3
-40 9 -46 14 -5 4 -17 8 -25 8 -51 4 -88 10 -99 17 -8 4 -35 9 -62 11 -26 1
-57 7 -68 13 -14 8 -21 8 -24 -2 -4 -9 -6 -9 -6 1 -1 7 -5 10 -11 7 -5 -3 -10
-2 -10 4 0 5 -11 8 -24 5 -14 -2 -28 0 -31 6 -4 7 -12 7 -25 0 -13 -7 -21 -7
-26 2 -5 7 -3 8 6 3 9 -5 11 -4 6 3 -4 8 -15 8 -31 2 -16 -6 -25 -6 -25 0 0 6
-3 9 -7 8 -5 -1 -42 2 -83 7 -41 5 -93 9 -115 9 -22 1 -44 4 -50 7 -9 5 -229
5 -703 0 -89 -1 -166 1 -171 3 -4 3 -10 3 -13 0z m533 -8004 c12 0 11 -44 -2
-57 -5 -5 -21 -8 -35 -5 -19 3 -24 11 -24 32 0 29 14 42 38 34 8 -2 18 -4 23
-4z"/>
</g>
</svg>
